<svg width="97" height="26" viewBox="0 0 97 26" fill="none" xmlns="http://www.w3.org/2000/svg">
<path d="M56.4267 4.39429H55.2943L53.8714 7.8497H53.8521L52.4293 4.39429H51.2968L49.5643 11.1696H51.1323L52.0518 7.30767H52.0711L53.3197 10.2017H54.3941L55.6524 7.30767H55.6717L56.5912 11.1696H58.1496L56.4267 4.39429Z" fill="#8C64D8"/>
<path d="M60.857 6.55271C59.4148 6.55271 58.3501 7.50125 58.3501 8.93375C58.3501 10.3662 59.4148 11.3148 60.857 11.3148C62.3088 11.3148 63.3735 10.3662 63.3735 8.93375C63.3735 7.50125 62.3088 6.55271 60.857 6.55271ZM60.857 7.88842C61.4474 7.88842 61.9023 8.29493 61.9023 8.93375C61.9023 9.57257 61.4474 9.97908 60.857 9.97908C60.2762 9.97908 59.8116 9.57257 59.8116 8.93375C59.8116 8.29493 60.2762 7.88842 60.857 7.88842Z" fill="#8C64D8"/>
<path d="M68.5107 6.6979H64.281V9.2822C64.281 9.70807 64.1165 9.82422 63.8842 9.82422H63.5841V11.1793H64.1165C65.094 11.1793 65.7425 10.6663 65.7425 9.55321V8.01424H67.0492V11.1696H68.5107V6.6979Z" fill="#8C64D8"/>
<path d="M71.6703 6.55271C70.2281 6.55271 69.1634 7.50125 69.1634 8.93375C69.1634 10.3662 70.2281 11.3148 71.6703 11.3148C73.1221 11.3148 74.1868 10.3662 74.1868 8.93375C74.1868 7.50125 73.1221 6.55271 71.6703 6.55271ZM71.6703 7.88842C72.2607 7.88842 72.7156 8.29493 72.7156 8.93375C72.7156 9.57257 72.2607 9.97908 71.6703 9.97908C71.0895 9.97908 70.6249 9.57257 70.6249 8.93375C70.6249 8.29493 71.0895 7.88842 71.6703 7.88842Z" fill="#8C64D8"/>
<path d="M79.0859 10.0952V6.6979H78.4858H76.5016H75.0691V8.85632C75.0691 9.34027 74.982 9.71775 74.7691 10.0952H74.1883V12.4279H75.4079V11.2664H78.4374V12.4279H79.657V10.0952H79.0859ZM76.5016 8.89503V7.96585H77.6437V10.0952H76.2403C76.4145 9.73711 76.5016 9.35963 76.5016 8.89503Z" fill="#8C64D8"/>
<path d="M81.9057 4.88792H80.8023V6.19459H81.9057V4.88792ZM83.6189 4.88792H82.5155V6.19459H83.6189V4.88792ZM82.2155 6.56239C80.8411 6.56239 79.8538 7.44318 79.8538 8.95311C79.8538 10.3759 80.8507 11.3148 82.351 11.3148C83.1156 11.3148 83.7254 11.0825 84.1997 10.7921L83.6673 9.68871C83.3866 9.87262 82.9124 10.0952 82.3703 10.0952C81.7702 10.0952 81.325 9.84358 81.2282 9.2822H84.432V8.95311C84.432 7.33671 83.5609 6.56239 82.2155 6.56239ZM82.1671 7.59804C82.6414 7.59804 82.9995 7.89809 83.0188 8.42076H81.2379C81.3057 7.84002 81.6735 7.59804 82.1671 7.59804Z" fill="#8C64D8"/>
<path d="M92.4528 11.1696L90.4589 8.73049L92.1624 6.6979H90.3621L89.0458 8.46916V6.6979H87.6713V8.46916L86.355 6.6979H84.5547L86.2582 8.73049L84.2643 11.1696H86.1517L87.6713 9.11765V11.1696H89.0458V9.11765L90.5751 11.1696H92.4528Z" fill="#8C64D8"/>
<path d="M95.2674 7.91745H94.2705V6.6979H92.8089V11.1696H95.2674C96.2934 11.1696 97 10.6566 97 9.54353C97 8.42076 96.2934 7.91745 95.2674 7.91745ZM94.9577 10.0468H94.2705V9.04022H94.9577C95.3255 9.04022 95.5288 9.20476 95.5288 9.54353C95.5288 9.87262 95.3255 10.0468 94.9577 10.0468Z" fill="#8C64D8"/>
<path d="M52.5744 14.3868H50.1547V21.1621H51.6549V18.8391H52.5744C54.2876 18.8391 55.0716 17.8809 55.0716 16.5549C55.0716 15.3353 54.2876 14.3868 52.5744 14.3868ZM52.4486 17.484H51.6549V15.7515H52.4486C53.0681 15.7515 53.4746 15.9935 53.4746 16.5839C53.4746 17.184 53.0681 17.484 52.4486 17.484Z" fill="#8C64D8"/>
<path d="M57.5393 16.5452C56.0971 16.5452 55.0324 17.4937 55.0324 18.9262C55.0324 20.3587 56.0971 21.3073 57.5393 21.3073C58.9911 21.3073 60.0558 20.3587 60.0558 18.9262C60.0558 17.4937 58.9911 16.5452 57.5393 16.5452ZM57.5393 17.8809C58.1297 17.8809 58.5846 18.2874 58.5846 18.9262C58.5846 19.565 58.1297 19.9716 57.5393 19.9716C56.9585 19.9716 56.4939 19.565 56.4939 18.9262C56.4939 18.2874 56.9585 17.8809 57.5393 17.8809Z" fill="#8C64D8"/>
<path d="M62.9454 21.3073C63.5746 21.3073 64.0779 21.1524 64.5618 20.8717L63.9617 19.7005C63.6907 19.8748 63.41 19.9716 63.0132 19.9716C62.4325 19.9716 61.9195 19.5941 61.9195 18.9262C61.9195 18.2584 62.4325 17.8809 63.0132 17.8809C63.41 17.8809 63.6907 17.9777 63.9617 18.1519L64.5618 16.9807C64.0779 16.7 63.5746 16.5452 62.9454 16.5452C61.513 16.5452 60.4579 17.484 60.4579 18.9262C60.4579 20.3684 61.513 21.3073 62.9454 21.3073Z" fill="#8C64D8"/>
<path d="M67.1044 21.3073C67.7335 21.3073 68.2368 21.1524 68.7208 20.8717L68.1207 19.7005C67.8497 19.8748 67.569 19.9716 67.1722 19.9716C66.5914 19.9716 66.0784 19.5941 66.0784 18.9262C66.0784 18.2584 66.5914 17.8809 67.1722 17.8809C67.569 17.8809 67.8497 17.9777 68.1207 18.1519L68.7208 16.9807C68.2368 16.7 67.7335 16.5452 67.1044 16.5452C65.6719 16.5452 64.6169 17.484 64.6169 18.9262C64.6169 20.3684 65.6719 21.3073 67.1044 21.3073Z" fill="#8C64D8"/>
<path d="M69.2258 21.1621H70.5131L72.4102 18.7423H72.4295V21.1621H73.8911V16.6904H72.6038L70.7067 19.1101H70.6873V16.6904H69.2258V21.1621Z" fill="#8C64D8"/>
<path d="M74.7931 21.1621H76.0804L77.9775 18.7423H77.9969V21.1621H79.4584V16.6904H78.1711L76.274 19.1101H76.2546V16.6904H74.7931V21.1621Z" fill="#8C64D8"/>
<path d="M26.0244 0H21.7298L16.3341 13.0717H16.2606L10.8649 0H6.57033L0 25.6308H5.94633L9.43338 11.0212H9.50679L14.2418 21.9692H18.3162L23.0879 11.0212H23.1613L26.6484 25.6308H32.558L26.0244 0Z" fill="#8C64D8"/>
<path fill-rule="evenodd" clip-rule="evenodd" d="M27.7089 0L33.4198 4.30846e-05C39.9571 4.30846e-05 42.9488 3.54196 42.9488 8.09585C42.9488 13.0473 39.9571 16.6254 33.4198 16.6254H31.6423L30.4881 11.5655H32.9396C35.3034 11.5655 36.8546 10.4451 36.8546 8.20428C36.8546 5.99961 35.3034 5.09607 32.9396 5.09607L29.0985 5.09602L27.7089 0Z" fill="#8C64D8"/>
</svg>